P2
7 910
255
0 0 0 0 0 0 0
0 0 0 0 0 0 0
0 25 21 24 24 21 0
0 28 28 28 28 28 21
0 25 21 24 24 21 0
0 0 0 0 0 0 0
0 0 0 0 0 0 0
0 0 0 0 0 0 0
0 0 0 0 0 23 0
0 0 21 23 27 27 23
0 29 26 29 26 22 0
0 27 25 22 0 0 0
0 0 0 0 0 0 0
0 0 0 0 0 0 0
0 0 0 0 0 0 0
0 0 0 0 24 26 0
0 0 0 26 29 24 0
0 0 23 29 26 0 0
0 26 29 23 0 0 0
0 0 26 0 0 0 0
0 0 0 0 0 0 0
0 0 0 0 23 0 0
0 0 0 22 27 23 0
0 0 0 26 27 0 0
0 0 22 29 23 0 0
0 0 25 26 21 0 0
0 0 27 29 0 0 0
0 0 0 0 0 0 0
0 0 0 21 0 0 0
0 0 21 28 21 0 0
0 0 24 28 24 0 0
0 0 24 28 24 0 0
0 0 21 28 21 0 0
0 0 25 28 25 0 0
0 0 0 0 0 0 0
0 0 23 0 0 0 0
0 23 27 22 0 0 0
0 0 27 26 0 0 0
0 0 23 29 22 0 0
0 0 21 26 25 0 0
0 0 0 29 27 0 0
0 0 0 0 0 0 0
0 0 0 0 0 0 0
0 26 24 0 0 0 0
0 24 29 26 0 0 0
0 0 26 29 23 0 0
0 0 0 23 29 26 0
0 0 0 0 26 0 0
0 0 0 0 0 0 0
0 0 0 0 0 0 0
0 23 0 0 0 0 0
23 27 27 23 21 0 0
0 22 26 29 26 29 0
0 0 0 22 25 27 0
0 0 0 0 0 0 0
0 0 0 0 0 0 0
0 0 0 0 0 0 0
0 0 0 0 0 0 0
0 21 24 24 21 25 0
21 28 28 28 28 28 0
0 21 24 24 21 25 0
0 0 0 0 0 0 0
0 0 0 0 0 0 0
0 0 0 0 0 0 0
0 0 0 0 0 0 0
0 0 0 22 25 27 0
0 22 26 29 26 29 0
23 27 27 23 21 0 0
0 23 0 0 0 0 0
0 0 0 0 0 0 0
0 0 0 0 0 0 0
0 0 0 0 26 0 0
0 0 0 23 29 26 0
0 0 26 29 23 0 0
0 24 29 26 0 0 0
0 26 24 0 0 0 0
0 0 0 0 0 0 0
0 0 0 0 0 0 0
0 0 0 29 27 0 0
0 0 21 26 25 0 0
0 0 23 29 22 0 0
0 0 27 26 0 0 0
0 23 27 22 0 0 0
0 0 23 0 0 0 0
0 0 0 0 0 0 0
0 0 25 28 25 0 0
0 0 21 28 21 0 0
0 0 24 28 24 0 0
0 0 24 28 24 0 0
0 0 21 28 21 0 0
0 0 0 21 0 0 0
0 0 0 0 0 0 0
0 0 27 29 0 0 0
0 0 25 26 21 0 0
0 0 22 29 23 0 0
0 0 0 26 27 0 0
0 0 0 22 27 23 0
0 0 0 0 23 0 0
0 0 0 0 0 0 0
0 0 26 0 0 0 0
0 26 29 23 0 0 0
0 0 23 29 26 0 0
0 0 0 26 29 24 0
0 0 0 0 24 26 0
0 0 0 0 0 0 0
0 0 0 0 0 0 0
0 0 0 0 0 0 0
0 27 25 22 0 0 0
0 29 26 29 26 22 0
0 0 21 23 27 27 23
0 0 0 0 0 23 0
0 0 0 0 0 0 0
0 0 0 0 0 0 0
0 0 72 64 0 0 0
0 74 73 65 64 0 0
0 75 74 66 65 0 0
0 0 75 67 0 0 0
0 0 0 0 0 0 0
0 0 0 0 0 0 0
0 0 0 0 0 0 0
0 0 0 0 0 60 0
0 0 0 0 61 0 0
0 0 59 61 0 0 0
0 0 0 59 0 0 0
0 0 0 0 0 0 0
0 0 0 0 0 0 0
0 0 0 0 0 0 0
0 0 0 0 60 0 0
0 0 0 60 59 0 0
0 0 59 61 0 0 0
0 0 0 59 0 0 0
0 0 0 0 0 0 0
0 0 0 0 0 0 0
0 0 0 0 0 0 0
0 0 0 60 0 0 0
0 0 0 61 0 0 0
0 0 0 61 0 0 0
0 0 59 60 59 0 0
0 0 0 0 0 0 0
0 0 0 0 0 0 0
0 0 0 0 0 0 0
0 0 60 0 0 0 0
0 0 59 60 0 0 0
0 0 0 61 59 0 0
0 0 0 59 0 0 0
0 0 0 0 0 0 0
0 0 0 0 0 0 0
0 0 0 0 0 0 0
0 60 0 0 0 0 0
0 0 61 0 0 0 0
0 0 0 61 59 0 0
0 0 0 59 0 0 0
0 0 0 0 0 0 0
0 0 0 0 0 0 0
0 0 0 0 0 0 0
0 0 0 0 0 0 0
0 60 59 0 0 0 0
0 0 60 61 59 0 0
0 0 0 59 0 0 0
0 0 0 0 0 0 0
0 0 0 0 0 0 0
0 0 0 0 0 0 0
0 0 0 0 0 0 0
0 0 0 0 59 0 0
0 60 61 61 60 0 0
0 0 0 0 59 0 0
0 0 0 0 0 0 0
0 0 0 0 0 0 0
0 0 0 0 0 0 0
0 0 0 0 0 0 0
0 0 0 59 0 0 0
0 0 60 61 59 0 0
0 60 59 0 0 0 0
0 0 0 0 0 0 0
0 0 0 0 0 0 0
0 0 0 0 0 0 0
0 0 0 0 0 0 0
0 0 0 59 0 0 0
0 0 0 61 59 0 0
0 0 61 0 0 0 0
0 60 0 0 0 0 0
0 0 0 0 0 0 0
0 0 0 0 0 0 0
0 0 0 0 0 0 0
0 0 0 59 0 0 0
0 0 0 61 59 0 0
0 0 59 60 0 0 0
0 0 60 0 0 0 0
0 0 0 0 0 0 0
0 0 0 0 0 0 0
0 0 0 0 0 0 0
0 0 59 60 59 0 0
0 0 0 61 0 0 0
0 0 0 61 0 0 0
0 0 0 60 0 0 0
0 0 0 0 0 0 0
0 0 0 0 0 0 0
0 0 0 0 0 0 0
0 0 0 59 0 0 0
0 0 59 61 0 0 0
0 0 0 60 59 0 0
0 0 0 0 60 0 0
0 0 0 0 0 0 0
0 0 0 0 0 0 0
0 0 0 0 0 0 0
0 0 0 59 0 0 0
0 0 59 61 0 0 0
0 0 0 0 61 0 0
0 0 0 0 0 60 0
0 0 0 0 0 0 0
0 0 0 0 0 0 71
0 0 0 0 0 70 0
0 0 0 0 69 0 0
0 0 0 69 0 0 0
0 0 0 0 0 0 0
0 0 0 0 0 0 0
0 0 0 0 0 0 0
0 0 0 0 71 0 0
0 0 0 0 70 0 0
0 0 0 69 71 0 0
0 0 0 69 0 0 0
0 0 0 0 0 0 0
0 0 0 0 0 0 0
0 0 0 0 0 0 0
0 0 0 71 0 0 0
0 0 0 70 0 0 0
0 0 0 69 0 0 0
0 0 0 69 0 0 0
0 0 0 0 0 0 0
0 0 0 0 0 0 0
0 0 0 0 0 0 0
0 0 71 0 0 0 0
0 0 70 0 0 0 0
0 0 71 69 0 0 0
0 0 0 69 0 0 0
0 0 0 0 0 0 0
0 0 0 0 0 0 0
0 0 0 0 0 0 0
71 0 0 0 0 0 0
0 70 0 0 0 0 0
0 0 69 0 0 0 0
0 0 0 69 0 0 0
0 0 0 0 0 0 0
0 0 0 0 0 0 0
0 0 0 0 0 0 0
0 0 0 0 0 0 0
0 0 0 0 0 0 0
71 70 71 0 0 0 0
0 0 69 69 0 0 0
0 0 0 0 0 0 0
0 0 0 0 0 0 0
0 0 0 0 0 0 0
0 0 0 0 0 0 0
0 0 0 0 0 0 0
0 0 0 0 0 0 0
71 70 69 69 0 0 0
0 0 0 0 0 0 0
0 0 0 0 0 0 0
0 0 0 0 0 0 0
0 0 0 0 0 0 0
0 0 0 0 0 0 0
0 0 0 0 0 0 0
0 0 69 69 0 0 0
71 70 71 0 0 0 0
0 0 0 0 0 0 0
0 0 0 0 0 0 0
0 0 0 0 0 0 0
0 0 0 0 0 0 0
0 0 0 0 0 0 0
0 0 0 69 0 0 0
0 0 69 0 0 0 0
0 70 0 0 0 0 0
71 0 0 0 0 0 0
0 0 0 0 0 0 0
0 0 0 0 0 0 0
0 0 0 0 0 0 0
0 0 0 69 0 0 0
0 0 71 69 0 0 0
0 0 70 0 0 0 0
0 0 71 0 0 0 0
0 0 0 0 0 0 0
0 0 0 0 0 0 0
0 0 0 0 0 0 0
0 0 0 69 0 0 0
0 0 0 69 0 0 0
0 0 0 70 0 0 0
0 0 0 71 0 0 0
0 0 0 0 0 0 0
0 0 0 0 0 0 0
0 0 0 0 0 0 0
0 0 0 69 0 0 0
0 0 0 69 71 0 0
0 0 0 0 70 0 0
0 0 0 0 71 0 0
0 0 0 0 0 0 0
0 0 0 0 0 0 0
0 0 0 0 0 0 0
0 0 0 69 0 0 0
0 0 0 0 69 0 0
0 0 0 0 0 70 0
0 0 0 0 0 0 71
126 126 126 0 0 0 0
126 0 126 0 0 0 0
126 126 126 0 0 0 0
0 0 0 0 0 0 0
0 0 0 0 0 0 0
0 0 0 0 0 0 0
0 0 0 0 0 0 0
10 10 10 0 0 0 0
10 0 10 0 0 0 0
10 10 10 0 0 0 0
0 0 0 0 0 0 0
0 0 0 0 0 0 0
0 0 0 0 0 0 0
0 0 0 0 0 0 0
0 0 0 0 0 0 0
0 0 0 0 0 0 0
0 0 0 56 0 0 0
0 0 56 57 0 0 0
0 0 58 0 0 0 0
0 0 0 0 0 0 0
0 0 0 0 0 0 0
0 0 0 0 0 0 0
0 0 0 0 0 0 0
0 0 56 0 0 0 0
0 0 57 56 0 0 0
0 0 0 58 0 0 0
0 0 0 0 0 0 0
0 0 0 0 0 0 0
0 0 0 0 0 0 0
0 0 0 0 0 0 0
0 0 0 0 0 0 0
0 0 57 56 0 0 0
0 0 0 58 56 0 0
0 0 0 0 0 0 0
0 0 0 0 0 0 0
0 0 0 0 0 0 0
0 0 0 0 0 0 0
0 0 0 0 0 0 0
0 0 0 57 56 0 0
0 0 58 56 0 0 0
0 0 0 0 0 0 0
0 0 0 0 0 0 0
0 0 0 0 0 0 0
0 0 0 0 0 0 0
0 0 0 112 0 0 0
0 0 112 114 112 0 0
0 0 0 112 0 0 0
0 0 0 0 0 0 0
0 0 0 0 0 0 0
0 0 0 0 0 0 0
0 0 0 0 0 0 0
0 0 0 111 112 0 0
0 0 111 113 113 112 0
0 0 0 111 111 0 0
0 0 0 0 0 0 0
0 0 0 0 0 0 0
0 0 0 0 0 0 0
0 0 0 0 0 0 0
0 0 0 109 110 0 0
0 0 109 111 112 110 0
0 109 110 112 112 110 0
0 0 0 110 110 0 0
0 0 0 0 0 0 0
0 0 0 0 0 0 0
0 0 0 0 109 0 0
0 0 108 109 110 109 0
0 108 110 111 111 110 109
0 0 109 110 111 111 109
0 0 0 109 110 109 0
0 0 108 108 109 0 0
0 0 0 0 0 0 0
0 0 0 106 108 0 0
0 106 108 108 109 108 0
106 108 109 110 110 109 108
0 0 108 109 110 110 108
0 0 0 108 109 106 0
0 0 106 106 108 0 0
0 0 0 0 0 0 0
0 0 0 0 107 0 0
0 0 107 108 108 107 0
0 107 108 109 109 108 107
0 0 107 109 109 107 0
0 0 0 108 108 107 0
0 0 0 107 0 0 0
0 0 0 0 0 0 0
0 0 0 0 0 0 0
0 0 82 83 0 0 0
0 0 84 90 88 0 0
0 0 0 84 89 0 0
0 0 0 0 0 0 0
0 0 0 0 0 0 0
0 0 0 0 0 0 0
0 0 0 0 0 0 0
0 0 83 88 0 0 0
0 82 90 89 88 0 0
0 0 83 83 0 0 0
0 0 0 0 0 0 0
0 0 0 0 0 0 0
0 0 0 0 0 0 0
0 0 0 0 0 0 0
0 0 0 89 88 0 0
0 0 82 90 84 0 0
0 0 83 83 0 0 0
0 0 0 0 0 0 0
0 0 0 0 0 0 0
0 0 0 0 0 0 0
0 0 0 0 0 0 0
0 0 0 88 0 0 0
0 0 83 89 88 0 0
0 0 83 90 83 0 0
0 0 0 82 0 0 0
0 0 0 0 0 0 0
0 0 0 0 0 0 0
0 0 0 0 0 0 0
0 0 0 84 120 0 0
0 0 84 122 121 0 0
0 0 83 82 0 0 0
0 0 0 0 0 0 0
0 0 0 0 0 0 0
0 0 0 0 0 0 0
0 0 0 0 0 0 0
0 0 0 120 0 0 0
0 0 83 121 120 0 0
0 0 83 122 83 0 0
0 0 0 82 0 0 0
0 0 0 0 0 0 0
0 0 0 0 0 0 0
0 0 0 0 0 0 0
0 0 120 83 0 0 0
0 0 122 121 83 0 0
0 0 0 83 82 0 0
0 0 0 0 0 0 0
0 0 0 0 0 0 0
0 0 0 0 0 0 0
0 0 0 0 0 0 0
0 0 120 83 0 0 0
0 122 121 120 82 0 0
0 0 83 83 0 0 0
0 0 0 0 0 0 0
0 0 0 0 0 0 0
0 0 0 0 0 0 0
0 0 0 0 0 0 0
0 0 15 12 0 0 0
0 0 18 15 0 0 0
0 0 18 12 0 0 0
0 0 0 0 0 0 0
0 0 0 0 0 0 0
0 0 0 0 0 0 0
0 0 0 0 0 0 0
0 0 15 12 0 0 0
0 0 18 15 12 0 0
0 0 0 18 12 0 0
0 0 0 0 0 0 0
0 0 0 0 0 0 0
0 0 0 0 0 0 0
0 0 0 0 0 0 0
0 0 0 0 0 0 0
0 0 12 15 12 0 0
0 0 18 18 15 0 0
0 0 0 0 0 0 0
0 0 0 0 0 0 0
0 0 0 0 0 0 0
0 0 0 0 0 0 0
0 0 0 15 12 0 0
0 0 18 18 12 0 0
0 0 18 12 0 0 0
0 0 0 0 0 0 0
0 0 0 0 0 0 0
0 0 0 0 0 0 0
0 0 0 0 0 0 0
0 0 0 98 0 0 0
0 0 95 66 98 0 0
0 0 0 95 0 0 0
0 0 0 0 0 0 0
0 0 0 0 0 0 0
0 0 0 0 0 0 0
0 152 0 0 158 0 0
0 0 66 65 0 0 0
0 0 67 66 0 0 0
0 154 0 0 156 0 0
0 0 0 0 0 0 0
0 0 0 0 0 0 0
0 0 0 0 0 0 0
0 0 0 0 0 0 0
0 0 0 73 0 0 0
0 0 75 75 73 0 0
0 0 0 75 0 0 0
0 0 0 0 0 0 0
0 0 0 0 0 0 0
0 0 0 0 0 0 0
0 0 0 0 0 0 0
0 0 0 48 0 0 0
0 0 50 49 48 0 0
0 0 0 50 0 0 0
0 0 0 0 0 0 0
0 0 0 0 0 0 0
0 0 0 0 0 0 0
0 0 0 65 0 0 0
0 0 64 65 64 0 0
0 66 66 67 65 65 0
0 0 64 66 64 0 0
0 0 0 66 0 0 0
0 0 0 0 0 0 0
0 0 0 0 0 0 0
0 0 65 0 0 0 0
0 0 64 65 64 65 0
0 0 66 67 65 0 0
0 66 64 66 65 0 0
0 0 0 0 66 0 0
0 0 0 0 0 0 0
0 0 0 0 0 0 0
0 65 0 0 0 65 0
0 0 64 65 64 0 0
0 0 66 67 65 0 0
0 0 64 66 64 0 0
0 66 0 0 0 65 0
0 0 0 0 0 0 0
0 0 0 0 0 0 0
0 0 0 0 65 0 0
0 66 64 65 64 0 0
0 0 66 67 65 0 0
0 0 64 66 64 65 0
0 0 66 0 0 0 0
0 0 0 0 0 0 0
0 0 0 0 0 0 0
0 0 0 0 0 0 0
0 0 67 74 73 0 0
0 67 68 75 74 73 0
0 0 67 74 73 0 0
0 0 0 0 0 0 0
0 0 0 0 0 0 0
0 0 0 0 0 0 0
0 0 0 0 74 73 0
0 0 0 74 75 74 0
0 0 67 68 74 0 0
0 0 66 67 0 0 0
0 0 0 0 0 0 0
0 0 0 0 0 0 0
0 0 0 0 0 0 0
0 0 0 73 0 0 0
0 0 73 74 73 0 0
0 0 74 75 74 0 0
0 0 67 68 67 0 0
0 0 0 67 0 0 0
0 0 0 0 0 0 0
0 0 0 0 0 0 0
0 73 74 0 0 0 0
0 74 75 74 0 0 0
0 0 74 68 67 0 0
0 0 0 67 66 0 0
0 0 0 0 0 0 0
0 0 0 0 0 0 0
0 0 0 0 0 0 0
0 0 0 0 0 0 0
0 0 73 74 67 0 0
0 73 74 75 68 67 0
0 0 73 74 67 0 0
0 0 0 0 0 0 0
0 0 0 0 0 0 0
0 0 0 0 0 0 0
0 0 0 0 0 0 0
0 0 0 67 66 0 0
0 0 74 68 67 0 0
0 74 75 74 0 0 0
0 73 74 0 0 0 0
0 0 0 0 0 0 0
0 0 0 0 0 0 0
0 0 0 67 0 0 0
0 0 67 68 67 0 0
0 0 74 75 74 0 0
0 0 73 74 73 0 0
0 0 0 73 0 0 0
0 0 0 0 0 0 0
0 0 0 0 0 0 0
0 0 0 0 0 0 0
0 0 66 67 0 0 0
0 0 67 68 74 0 0
0 0 0 74 75 74 0
0 0 0 0 74 73 0
0 0 0 0 0 0 0
0 0 0 0 0 0 0
0 0 0 0 0 0 0
0 0 64 65 64 0 0
0 0 66 67 65 0 0
0 0 65 66 64 0 0
0 0 0 0 0 0 0
0 0 0 0 0 0 0
0 0 0 0 0 0 0
0 0 0 0 0 0 0
0 0 0 66 0 0 0
0 0 67 69 66 0 0
0 0 0 67 0 0 0
0 0 0 0 0 0 0
0 0 0 0 0 0 0
0 0 0 0 0 0 0
0 0 0 0 0 0 0
0 0 73 66 65 0 0
0 0 74 75 66 0 0
0 0 73 74 65 0 0
0 0 0 0 0 0 0
0 0 0 0 0 0 0
0 0 0 0 0 0 0
0 0 0 0 0 0 0
0 0 74 73 72 0 0
0 0 75 74 73 0 0
0 0 73 75 74 0 0
0 0 0 0 0 0 0
0 0 0 0 0 0 0
0 0 0 0 0 0 0
0 0 177 176 0 0 0
0 179 178 177 176 0 0
0 180 179 178 177 0 0
0 0 180 179 0 0 0
0 0 0 0 0 0 0
0 0 0 0 0 0 0
0 0 0 0 0 0 0
0 0 0 0 0 0 0
0 126 126 126 126 0 0
0 128 128 128 127 0 0
0 0 0 0 0 0 0
0 0 0 0 0 0 0
0 0 0 0 0 0 0
0 0 0 0 0 0 0
0 0 0 0 0 0 0
0 0 0 128 127 0 0
0 0 128 127 126 0 0
0 128 127 126 0 0 0
0 0 126 0 0 0 0
0 0 0 0 0 0 0
0 0 0 0 0 0 0
0 0 0 0 0 0 0
0 0 127 126 0 0 0
0 0 128 126 0 0 0
0 0 128 126 0 0 0
0 0 128 126 0 0 0
0 0 0 0 0 0 0
0 0 0 0 0 0 0
0 0 0 0 0 0 0
0 0 126 0 0 0 0
0 128 127 126 0 0 0
0 0 128 127 126 0 0
0 0 0 128 127 0 0
0 0 0 0 0 0 0
0 0 0 0 0 0 0
0 0 0 0 0 0 0
0 0 53 52 0 0 0
0 0 54 0 0 0 0
0 0 0 0 0 0 0
0 0 0 0 0 0 0
0 0 0 0 0 0 0
0 0 0 0 0 0 0
0 0 0 0 0 0 0
0 0 0 0 0 0 0
0 0 52 0 0 0 0
0 0 54 53 0 0 0
0 0 0 0 0 0 0
0 0 0 0 0 0 0
0 0 0 0 0 0 0
0 0 0 0 0 0 0
0 0 0 0 0 0 0
0 0 0 0 52 0 0
0 0 0 54 53 0 0
0 0 0 0 0 0 0
0 0 0 0 0 0 0
0 0 0 0 0 0 0
0 0 0 0 0 0 0
0 0 0 53 52 0 0
0 0 0 0 54 0 0
0 0 0 0 0 0 0
0 0 0 0 0 0 0
0 0 0 0 0 0 0
0 0 0 0 0 0 0
0 0 0 0 0 0 0
0 0 0 52 51 0 0
0 0 54 53 52 51 0
0 0 0 54 53 0 0
0 0 0 0 0 0 0
0 0 0 0 0 0 0
0 0 0 0 0 0 0
0 0 0 0 0 0 0
0 0 0 52 51 0 0
0 0 53 53 52 0 0
0 0 54 53 0 0 0
0 0 0 0 0 0 0
0 0 0 0 0 0 0
0 0 0 0 0 0 0
0 0 0 0 0 0 0
0 0 0 51 0 0 0
0 0 53 52 51 0 0
0 0 54 53 52 0 0
0 0 0 54 0 0 0
0 0 0 0 0 0 0
0 0 0 0 0 0 0
0 0 0 0 0 0 0
0 0 53 52 0 0 0
0 0 54 53 51 0 0
0 0 0 54 52 0 0
0 0 0 0 0 0 0
0 0 0 0 0 0 0
74 73 74 73 0 0 0
75 74 75 74 0 0 0
74 73 74 73 0 0 0
74 73 74 73 0 0 0
75 74 75 74 0 0 0
74 73 74 73 0 0 0
0 0 0 0 0 0 0
0 0 0 0 0 0 0
0 67 67 66 0 0 0
67 69 127 68 66 0 0
68 127 127 127 67 0 0
67 69 127 69 67 0 0
0 70 69 67 0 0 0
0 0 0 0 0 0 0
100 99 100 99 0 0 0
101 100 101 100 0 0 0
100 99 100 99 0 0 0
100 99 100 99 0 0 0
101 100 101 100 0 0 0
100 99 100 99 0 0 0
0 0 0 0 0 0 0
38 38 38 38 38 38 38
34 34 34 33 0 0 0
33 33 33 32 0 0 0
0 33 32 31 0 0 0
0 32 32 0 0 0 0
0 0 31 0 0 0 0
0 0 0 0 0 0 0
38 38 38 38 38 38 38
43 43 43 42 0 0 0
42 42 42 41 0 0 0
0 42 41 40 0 0 0
0 41 41 0 0 0 0
0 0 40 0 0 0 0
0 0 0 0 0 0 0
0 0 0 0 0 0 0
0 0 0 0 0 0 0
0 0 0 185 184 0 0
0 0 187 186 185 184 0
0 0 0 187 186 0 0
0 0 0 0 0 0 0
0 0 0 0 0 0 0
0 0 0 0 0 0 0
0 0 0 0 0 0 0
0 0 0 185 184 0 0
0 0 186 186 185 0 0
0 0 187 186 0 0 0
0 0 0 0 0 0 0
0 0 0 0 0 0 0
0 0 0 0 0 0 0
0 0 0 0 0 0 0
0 0 0 184 0 0 0
0 0 186 185 184 0 0
0 0 187 186 185 0 0
0 0 0 187 0 0 0
0 0 0 0 0 0 0
0 0 0 0 0 0 0
0 0 0 0 0 0 0
0 0 186 185 0 0 0
0 0 187 186 184 0 0
0 0 0 187 185 0 0
0 0 0 0 0 0 0
0 0 0 0 0 0 0
0 0 0 0 0 0 0
0 0 0 0 0 0 0
0 0 186 187 0 0 0
0 0 0 185 187 0 0
0 0 0 0 186 0 0
0 0 0 0 0 0 0
0 0 0 0 0 0 0
0 0 0 0 0 0 0
0 0 0 0 0 0 0
0 0 0 187 186 0 0
0 0 187 185 0 0 0
0 0 186 0 0 0 0
0 0 0 0 0 0 0
0 0 0 0 0 0 0
0 0 0 0 0 0 0
0 0 0 0 0 0 0
0 0 186 0 0 0 0
0 0 187 185 0 0 0
0 0 0 187 186 0 0
0 0 0 0 0 0 0
0 0 0 0 0 0 0
0 0 0 0 0 0 0
0 0 0 0 0 0 0
0 0 0 0 186 0 0
0 0 0 185 187 0 0
0 0 186 187 0 0 0
0 0 0 0 0 0 0
0 0 0 0 0 0 0
0 0 0 0 0 0 0
0 0 0 0 0 36 0
0 0 0 0 37 0 0
0 0 0 37 0 0 0
0 0 0 0 0 0 0
0 0 0 0 0 0 0
0 0 0 0 0 0 0
0 0 0 0 0 0 0
0 0 0 0 36 0 0
0 0 0 36 35 0 0
0 0 0 37 0 0 0
0 0 0 0 0 0 0
0 0 0 0 0 0 0
0 0 0 0 0 0 0
0 0 0 0 0 0 0
0 0 0 36 0 0 0
0 0 0 37 0 0 0
0 0 0 37 0 0 0
0 0 0 0 0 0 0
0 0 0 0 0 0 0
0 0 0 0 0 0 0
0 0 0 0 0 0 0
0 0 36 0 0 0 0
0 0 36 35 0 0 0
0 0 0 37 0 0 0
0 0 0 0 0 0 0
0 0 0 0 0 0 0
0 0 0 0 0 0 0
0 0 0 0 0 0 0
0 36 0 0 0 0 0
0 0 37 0 0 0 0
0 0 0 37 0 0 0
0 0 0 0 0 0 0
0 0 0 0 0 0 0
0 0 0 0 0 0 0
0 0 0 0 0 0 0
0 0 0 0 0 0 0
0 36 35 0 0 0 0
0 0 36 37 0 0 0
0 0 0 0 0 0 0
0 0 0 0 0 0 0
0 0 0 0 0 0 0
0 0 0 0 0 0 0
0 0 0 0 0 0 0
0 0 0 0 0 0 0
0 36 37 37 0 0 0
0 0 0 0 0 0 0
0 0 0 0 0 0 0
0 0 0 0 0 0 0
0 0 0 0 0 0 0
0 0 0 0 0 0 0
0 0 0 0 0 0 0
0 0 36 37 0 0 0
0 36 35 0 0 0 0
0 0 0 0 0 0 0
0 0 0 0 0 0 0
0 0 0 0 0 0 0
0 0 0 0 0 0 0
0 0 0 0 0 0 0
0 0 0 37 0 0 0
0 0 37 0 0 0 0
0 36 0 0 0 0 0
0 0 0 0 0 0 0
0 0 0 0 0 0 0
0 0 0 0 0 0 0
0 0 0 0 0 0 0
0 0 0 37 0 0 0
0 0 36 35 0 0 0
0 0 36 0 0 0 0
0 0 0 0 0 0 0
0 0 0 0 0 0 0
0 0 0 0 0 0 0
0 0 0 0 0 0 0
0 0 0 37 0 0 0
0 0 0 37 0 0 0
0 0 0 36 0 0 0
0 0 0 0 0 0 0
0 0 0 0 0 0 0
0 0 0 0 0 0 0
0 0 0 0 0 0 0
0 0 0 37 0 0 0
0 0 0 36 35 0 0
0 0 0 0 36 0 0
0 0 0 0 0 0 0
0 0 0 0 0 0 0
0 0 0 0 0 0 0
0 0 0 0 0 0 0
0 0 0 37 0 0 0
0 0 0 0 37 0 0
0 0 0 0 0 36 0
0 0 0 0 0 0 0
0 0 0 0 0 0 0
0 60 0 0 59 0 0
0 0 24 20 0 0 0
0 0 28 24 0 0 0
0 61 0 0 60 0 0
0 0 0 0 0 0 0
0 0 0 0 0 0 0
0 0 0 0 0 0 0
0 0 0 59 0 0 0
0 60 24 20 0 0 0
0 0 28 24 60 0 0
0 0 61 0 0 0 0
0 0 0 0 0 0 0
0 0 0 0 0 0 0
0 0 0 0 0 0 0
0 0 60 0 0 0 0
0 0 24 20 59 0 0
0 61 28 24 0 0 0
0 0 0 60 0 0 0
0 0 0 0 0 0 0
0 0 0 0 0 0 0
0 0 0 0 0 0 0
0 0 0 0 0 0 0
0 0 0 148 0 0 0
0 0 151 150 148 0 0
0 0 0 151 0 0 0
0 0 0 0 0 0 0
0 0 0 0 0 0 0

