P2
4 120
255
71 69 69
69 69 0 69
0 71 69 69
69 0 0 0
0 69 69 69
69 70 69 0
69 71 71 69
71 0 0 0
0 71 69 69
71 69 0 0
69 69 0 0
69 0 0 0
0 69 69 69
69 69 0 0
69 71 69 69
71 0 0 0
0 69 69 69
69 69 0 70
69 69 0 0
69 0 0 0
0 69 69 69
69 69 0 70
0 69 0 0
0 0 0 0
0 71 69 69
71 69 0 0
69 69 0 69
69 0 0 0
0 69 69 69
69 0 69 0
0 69 69 69
69 0 0 0
0 69 0 0
69 69 69 69
69 69 0 0
69 0 0 0
0 0 0 69
71 0 0 0
69 69 69 69
71 0 0 0
0 69 69 69
69 0 69 71
0 69 71 69
69 0 0 0
0 69 69 69
69 0 0 0
69 0 0 0
69 0 0 0
0 69 69 69
69 71 69 70
0 69 69 69
69 0 0 0
0 69 69 69
69 0 70 70
0 69 69 69
69 0 0 0
0 71 69 69
71 69 0 0
69 71 69 69
71 0 0 0
0 69 69 69
69 69 0 69
0 71 69 71
0 0 0 0
0 71 69 69
71 69 0 0
69 71 69 69
69 0 0 0
0 69 69 69
69 69 0 69
0 71 69 71
69 0 0 0
0 71 69 0
69 69 69 71
69 69 0 69
71 0 0 0
0 69 0 0
0 69 69 69
69 69 0 0
0 0 0 0
0 69 69 69
71 0 0 0
69 69 69 69
71 0 0 0
0 69 69 71
0 0 0 69
69 69 69 71
0 0 0 0
0 69 69 69
69 0 70 69
71 69 69 69
69 0 0 0
0 69 71 69
69 0 69 0
0 69 71 69
69 0 0 0
0 69 71 0
0 0 69 69
69 69 71 0
0 0 0 0
0 69 0 69
69 69 69 71
69 69 71 0
69 0 0 0
0 0 0 0
0 0 0 0
0 0 0 0
0 0 0 0
0 0 0 0
0 0 0 0
0 0 0 0
0 0 0 0
0 0 0 0
0 0 0 0
0 0 0 0
0 0 0 0
0 0 0 0
0 0 0 0
0 0 0 0
0 0 0 0
0